# xmcd CD database file
#
# Track frame offsets:
#	150
#	14451
#	31164
#	42546
#	59712
#	74145
#	89718
#	105465
#	122394
#	138267
#
# Disc length: 2034 seconds
#
# Revision: 0
# Processed by: cddbd v1.5PL3 Copyright (c) Steve Scherf et al.
# Submitted via: CDex 1.50beta10
#
DISCID=9007f00a
DTITLE=Paulo Moura - Fibra
DYEAR=1900
DGENRE=Jazz
TTITLE0=Fibra
TTITLE1=Ana Lia's Blues
TTITLE2=Filgueiras
TTITLE3=Tema dos Deuses
TTITLE4=Vera Cruz
TTITLE5=Aquarela do Brasil
TTITLE6=Cravo e Canela
TTITLE7=General da Banda
TTITLE8=Bitucadas no. 2
TTITLE9=Cascata
EXTD=
EXTT0=
EXTT1=
EXTT2=
EXTT3=
EXTT4=
EXTT5=
EXTT6=
EXTT7=
EXTT8=
EXTT9=
PLAYORDER=
